<?xml version="1.0" standalone="no"?>
<!DOCTYPE svg PUBLIC "-//W3C//DTD SVG 20010904//EN"
 "http://www.w3.org/TR/2001/REC-SVG-20010904/DTD/svg10.dtd">
<svg version="1.0" xmlns="http://www.w3.org/2000/svg"
 width="300.000000pt" height="300.000000pt" viewBox="0 0 300.000000 300.000000"
 preserveAspectRatio="xMidYMid meet">
<metadata>
Created by potrace 1.10, written by Peter Selinger 2001-2011
</metadata>
<g transform="translate(0.000000,300.000000) scale(0.100000,-0.100000)"
fill="#000000" stroke="none">
<path d="M1630 2957 c0 -27 -26 -23 260 -43 280 -19 542 -26 535 -14 -11 18
27 11 41 -7 13 -17 15 -16 33 7 20 25 20 25 -1 33 -12 4 -29 5 -39 2 -10 -4
-62 -1 -116 4 -54 6 -174 13 -268 16 -280 10 -368 14 -407 21 -35 5 -38 4 -38
-19z"/>
<path d="M1888 2833 c17 -2 47 -2 65 0 17 2 3 4 -33 4 -36 0 -50 -2 -32 -4z"/>
<path d="M1455 2814 c-44 -15 -131 -71 -162 -103 -91 -96 -125 -321 -59 -389
29 -31 32 -48 15 -86 -10 -20 -9 -30 5 -51 22 -33 34 -24 16 10 -10 19 -10 27
-1 39 8 10 11 39 7 91 -6 88 -10 100 -20 53 -7 -32 -7 -32 -22 -13 -16 21 -19
161 -4 180 5 6 13 29 19 53 7 23 16 42 20 42 5 0 11 9 14 21 3 12 10 18 15 15
5 -3 14 5 19 17 6 12 23 29 39 37 16 8 34 20 39 27 6 7 24 13 40 15 17 2 37
10 45 19 18 19 58 18 71 -2 7 -11 9 -9 9 8 0 27 26 21 35 -8 5 -15 10 -17 19
-10 15 13 93 -24 88 -41 -2 -8 1 -8 11 1 12 9 18 8 30 -4 12 -11 17 -12 20 -2
3 6 6 2 6 -11 1 -13 5 -21 10 -17 6 3 15 -4 21 -15 6 -11 16 -20 23 -20 8 0 7
4 -3 11 -13 9 -13 10 0 6 9 -2 14 -13 12 -25 -2 -13 8 -34 26 -54 17 -17 28
-37 25 -45 -3 -7 0 -13 6 -13 6 0 8 -6 5 -14 -3 -8 -1 -17 5 -21 6 -3 11 -11
11 -16 0 -6 -4 -8 -9 -5 -5 4 -11 0 -14 -6 -3 -10 -8 -10 -18 1 -9 9 -9 11 -1
7 16 -10 15 0 -4 30 -10 14 -29 31 -45 39 -15 8 -34 22 -43 30 -15 15 -16 15
-16 0 0 -15 -2 -15 -17 1 -10 10 -18 21 -18 25 0 4 -3 11 -7 15 -5 4 -8 -2 -8
-14 0 -11 -5 -24 -12 -28 -6 -4 -8 -3 -5 3 3 5 -4 9 -16 8 -12 -1 -26 3 -30 9
-5 7 -7 3 -5 -9 2 -11 8 -20 13 -21 84 -6 153 -33 170 -65 8 -16 23 -44 32
-61 10 -20 19 -63 21 -107 3 -47 7 -68 13 -60 6 10 9 3 9 -21 -1 -33 -2 -34
-15 -16 -14 18 -15 17 -15 -21 0 -23 -5 -54 -11 -70 -6 -15 -12 -60 -13 -99
-2 -39 -9 -82 -16 -95 -18 -34 -87 -108 -95 -101 -3 3 -12 -4 -20 -15 -8 -11
-26 -24 -41 -27 -14 -4 -24 -10 -20 -13 3 -3 -10 -14 -29 -24 -41 -22 -105
-26 -105 -6 0 8 -8 23 -18 35 l-19 21 0 -30 c0 -19 3 -25 9 -17 6 10 8 10 8
-2 0 -26 38 -41 100 -39 33 1 57 5 55 10 -3 4 13 10 35 14 25 4 40 12 40 21 0
8 7 17 15 20 8 4 15 11 15 18 0 6 18 30 41 53 22 23 38 47 34 53 -4 7 2 14 14
17 16 4 21 14 22 42 1 20 1 39 1 42 -2 16 18 121 32 172 16 59 29 176 30 278
0 77 -59 199 -114 234 -21 13 -40 29 -42 36 -5 14 -63 35 -152 54 -76 17 -121
17 -171 -1z"/>
<path d="M2410 2820 c-12 -8 -12 -10 3 -16 9 -3 25 -3 34 0 15 6 15 8 3 16 -8
6 -17 10 -20 10 -3 0 -12 -4 -20 -10z"/>
<path d="M2630 2623 c0 -65 -3 -151 -7 -190 -4 -51 -2 -73 6 -73 14 0 13 -13
17 198 1 107 -1 182 -7 182 -5 0 -9 -52 -9 -117z"/>
<path d="M1560 2611 c0 -15 -32 -22 -45 -11 -9 7 -14 7 -18 -2 -7 -19 67 -22
82 -4 9 11 8 15 -4 20 -8 3 -15 1 -15 -3z"/>
<path d="M1470 2410 c-8 -5 -27 -10 -42 -10 -16 0 -28 -3 -28 -8 0 -4 -10 -12
-22 -17 -12 -6 -24 -16 -26 -24 -3 -10 6 -8 34 7 40 21 105 37 137 33 21 -3
23 15 1 23 -22 8 -37 7 -54 -4z"/>
<path d="M1655 2390 c-4 -6 -5 -13 -3 -16 10 -9 106 -23 126 -17 33 8 26 20
-15 26 -21 3 -52 9 -69 12 -20 4 -34 3 -39 -5z"/>
<path d="M2899 2336 c-4 -4 -246 -16 -311 -16 -6 0 -8 -3 -5 -7 13 -12 417 5
417 18 0 9 -93 13 -101 5z"/>
<path d="M1690 2319 c0 -5 -6 -6 -14 -3 -8 3 -17 -3 -20 -14 -8 -23 12 -72 28
-73 6 0 31 -2 56 -4 25 -2 37 -1 28 2 -21 5 -24 23 -5 23 8 0 8 3 -2 9 -8 5
-11 16 -7 26 5 14 2 17 -21 13 -16 -3 -37 -9 -48 -13 -16 -6 -18 -5 -8 5 6 7
26 15 45 19 l33 7 -32 5 c-18 3 -33 2 -33 -2z m37 -43 c-3 -7 -1 -18 4 -23 6
-6 2 -9 -13 -8 -26 2 -36 24 -17 36 21 13 32 11 26 -5z"/>
<path d="M1412 2303 c-36 -18 -40 -46 -7 -51 16 -2 17 -1 5 7 -12 8 -10 12 10
19 28 11 42 5 20 -8 -12 -7 -11 -10 5 -16 11 -4 29 -14 39 -23 11 -9 16 -11
13 -5 -4 7 2 14 14 17 15 4 20 11 16 21 -4 10 -1 16 8 16 8 0 15 6 15 14 0 18
-27 28 -34 13 -5 -9 -7 -9 -12 1 -8 17 -52 15 -92 -5z m84 -9 c10 -8 12 -12 4
-8 -13 7 -13 5 -2 -8 10 -13 9 -16 -8 -21 -15 -4 -20 0 -20 13 0 11 -8 24 -17
29 -16 9 -16 10 3 11 11 0 29 -7 40 -16z"/>
<path d="M1760 2312 c0 -5 10 -14 23 -21 22 -11 22 -11 -3 -5 -22 6 -23 5 -8
-10 14 -13 21 -14 42 -4 14 6 26 15 26 20 0 5 -4 6 -10 3 -5 -3 -23 1 -40 10
-16 8 -30 12 -30 7z"/>
<path d="M1570 2251 c-13 -25 -13 -61 0 -61 6 0 10 6 10 13 0 8 4 7 10 -3 7
-11 10 -4 10 28 0 45 -13 55 -30 23z"/>
<path d="M2723 2253 c-98 -3 -123 -7 -123 -18 0 -7 5 -17 11 -20 7 -5 8 -31 4
-77 -4 -43 -3 -68 2 -65 6 4 11 32 12 64 3 94 -2 90 114 93 56 2 116 4 132 5
17 1 51 2 78 3 26 1 47 7 47 12 0 6 -31 9 -77 8 -43 -1 -133 -4 -200 -5z"/>
<path d="M1675 2178 c4 -18 11 -34 16 -36 14 -6 11 -43 -3 -41 -7 1 -24 0 -38
-1 -16 -2 -8 -5 20 -9 34 -5 47 -12 55 -28 5 -13 15 -23 22 -23 7 0 13 -6 13
-14 0 -8 5 -18 11 -22 8 -5 10 1 7 17 -10 48 -13 54 -30 67 -10 7 -18 20 -18
28 0 16 -47 94 -56 94 -3 0 -2 -15 1 -32z"/>
<path d="M1560 2154 c0 -23 28 -36 32 -14 4 28 2 33 -14 36 -13 2 -18 -5 -18
-22z"/>
<path d="M1264 2128 c3 -13 11 -59 17 -102 9 -68 14 -84 40 -108 16 -16 29
-33 29 -38 0 -6 7 -10 15 -10 8 0 15 7 15 15 0 9 -7 18 -15 21 -8 4 -15 12
-15 19 0 7 -7 18 -15 25 -16 13 -28 51 -45 143 -7 31 -16 57 -22 57 -6 0 -8
-9 -4 -22z"/>
<path d="M1495 2140 c-4 -6 -11 -7 -17 -4 -6 4 -8 2 -5 -3 4 -6 -5 -23 -20
-39 -16 -17 -21 -30 -14 -32 16 -5 41 17 41 37 0 12 2 13 9 3 4 -7 24 -15 44
-16 20 -2 43 -8 50 -15 15 -12 27 -5 27 16 0 9 -16 13 -55 13 -54 0 -55 1 -49
25 6 25 0 33 -11 15z"/>
<path d="M1611 2057 c-18 -18 -13 -27 14 -27 28 0 31 6 11 25 -10 10 -16 11
-25 2z"/>
<path d="M1545 2041 c-6 -5 -19 -11 -30 -14 -15 -4 31 -2 63 3 1 0 2 5 2 10 0
12 -23 13 -35 1z"/>
<path d="M1436 2003 c-3 -3 -6 -13 -6 -22 0 -14 2 -14 9 -2 8 12 12 13 25 2
13 -11 40 -12 119 -6 56 4 119 8 139 8 21 1 36 7 34 12 -1 6 -14 9 -27 7 -13
-1 -51 -3 -84 -3 -33 -1 -65 -5 -71 -10 -10 -8 -104 4 -123 16 -5 2 -11 2 -15
-2z"/>
<path d="M2610 1970 c-7 -89 -7 -111 2 -102 5 5 7 40 5 78 -3 58 -4 62 -7 24z"/>
<path d="M2448 1978 c4 -4 5 -40 1 -80 -12 -112 -10 -286 2 -266 5 9 11 93 13
186 2 138 0 169 -11 169 -8 0 -10 -4 -5 -9z"/>
<path d="M129 1968 c0 -7 -2 -24 -3 -38 -2 -14 -7 -140 -11 -280 -4 -140 -7
-259 -8 -264 -1 -5 4 -11 10 -13 10 -3 13 29 13 134 0 76 2 213 5 306 3 92 3
167 0 167 -3 0 -5 -6 -6 -12z"/>
<path d="M1609 1919 c-8 -5 -29 -9 -47 -9 -20 0 -31 -4 -27 -10 3 -5 15 -10
26 -10 10 0 19 -4 19 -10 0 -5 7 -10 15 -10 8 0 15 6 15 13 0 8 4 7 10 -3 8
-13 10 -12 10 3 0 9 5 17 10 17 6 0 10 4 10 9 0 14 -25 20 -41 10z"/>
<path d="M1265 1885 c-17 -33 -27 -41 -60 -48 -22 -4 -58 -12 -80 -16 -49 -10
-247 -111 -331 -168 -108 -73 -151 -138 -183 -271 -13 -56 -17 -96 -12 -138
l6 -59 12 38 c6 20 8 37 4 37 -5 0 -4 24 1 53 5 28 10 64 12 79 3 14 10 37 17
50 7 12 11 23 10 23 -8 0 17 45 41 73 22 25 28 29 28 15 1 -11 6 -6 14 13 14
32 60 74 81 74 7 0 16 7 19 16 4 10 14 14 26 11 11 -3 18 0 17 6 -1 6 16 17
38 24 22 8 42 17 45 21 3 4 25 18 50 31 25 14 48 29 52 34 6 10 32 15 90 20
15 1 33 8 40 15 6 6 22 12 35 12 25 0 57 49 51 78 -2 12 -10 4 -23 -23z"/>
<path d="M1401 1856 c-9 -11 -5 -19 20 -37 25 -18 31 -19 26 -7 -3 9 -1 19 6
22 7 3 1 3 -11 0 -21 -5 -23 -3 -17 15 7 24 -7 28 -24 7z"/>
<path d="M1712 1734 c-1 -14 -6 -34 -12 -44 -5 -10 -10 -28 -10 -38 0 -11 -14
-32 -31 -46 -34 -29 -27 -35 10 -10 27 19 51 71 51 111 l1 28 18 -22 c10 -12
20 -20 23 -18 7 7 58 -78 58 -97 0 -10 5 -18 11 -18 5 0 7 -4 4 -10 -3 -5 2
-10 12 -11 10 0 13 -3 6 -5 -15 -7 -5 -34 13 -34 7 0 11 -6 8 -13 -5 -15 21
-83 36 -92 6 -4 8 -10 5 -15 -3 -4 1 -13 9 -19 11 -9 12 -6 8 16 -3 16 -8 30
-11 33 -4 3 -12 23 -19 46 -7 23 -23 58 -37 78 -14 21 -23 42 -19 47 3 5 1 15
-4 22 -16 21 -21 57 -8 57 7 0 30 -34 51 -75 21 -42 40 -73 42 -71 3 2 -1 15
-8 28 -15 26 -20 88 -7 88 4 0 8 -5 8 -12 0 -6 3 -8 6 -5 11 11 46 -14 40 -29
-3 -8 -2 -14 3 -14 5 0 11 9 14 20 9 34 35 12 50 -43 43 -161 70 -359 61 -462
-15 -189 -19 -274 -12 -267 5 5 13 59 20 120 6 62 14 112 17 112 8 0 5 110 -4
185 -3 28 -7 56 -7 63 -1 6 -4 12 -8 12 -4 0 -12 44 -18 98 -6 53 -14 112 -18
131 -10 48 14 37 46 -22 30 -55 41 -67 33 -38 -6 23 11 29 24 9 4 -7 10 -47
13 -88 l6 -75 8 53 c6 33 13 52 22 52 17 0 17 2 3 34 -7 14 -29 37 -50 52 -21
14 -41 35 -44 45 -6 18 -10 21 -37 23 -7 1 -20 8 -28 17 -8 9 -42 24 -75 32
-76 19 -205 69 -236 90 -31 22 -34 22 -37 -9z"/>
<path d="M1230 1742 c0 -6 18 -25 40 -43 21 -18 37 -35 35 -38 -1 -3 9 -7 23
-8 26 -1 26 -1 5 15 -11 10 -39 32 -62 50 -23 19 -41 29 -41 24z"/>
<path d="M2276 1703 c-11 -40 -27 -181 -24 -218 2 -31 7 -15 21 70 10 61 21
122 24 138 6 30 -12 38 -21 10z"/>
<path d="M2208 1629 c-3 -39 -3 -81 0 -92 5 -20 6 -20 13 -1 11 27 11 164 0
164 -4 0 -11 -32 -13 -71z"/>
<path d="M2359 1679 c-7 -13 -18 -29 -25 -36 -13 -13 -34 -97 -34 -136 0 -13
-7 -32 -15 -43 -8 -12 -11 -24 -8 -28 16 -16 154 7 205 34 10 6 40 2 88 -11
75 -21 92 -20 70 6 -8 9 -29 15 -56 15 -33 0 -42 3 -38 14 3 8 15 17 27 20 12
3 19 8 16 11 -3 3 -21 -1 -40 -9 -65 -27 -217 -63 -230 -56 -10 7 -7 22 14 72
42 100 57 152 48 161 -5 5 -15 -1 -22 -14z"/>
<path d="M1313 1638 c-2 -5 5 -8 15 -8 11 0 25 -7 32 -15 7 -8 20 -15 29 -15
14 1 14 2 -1 14 -10 7 -18 18 -18 24 0 11 -49 11 -57 0z"/>
<path d="M2150 1623 c0 -10 3 -29 7 -42 6 -22 7 -23 13 -6 8 23 1 65 -11 65
-5 0 -9 -8 -9 -17z"/>
<path d="M1080 1613 c0 -6 7 -16 15 -23 9 -7 13 -15 10 -18 -3 -3 -1 -10 3
-16 11 -14 38 -91 49 -136 8 -37 11 -99 16 -415 2 -131 7 -208 15 -222 7 -12
12 -35 12 -52 l0 -29 138 3 c75 1 157 6 181 10 25 5 80 3 130 -4 47 -6 122
-16 166 -22 103 -14 180 -33 210 -53 12 -8 31 -36 41 -62 16 -43 16 -49 1 -97
-9 -29 -18 -68 -21 -87 l-5 -35 14 27 c8 15 22 56 30 93 15 62 15 68 -4 110
-12 27 -33 52 -52 64 l-32 20 54 3 c39 2 55 7 57 19 2 13 -5 14 -40 9 -32 -4
-46 -2 -55 10 -11 13 -12 13 -13 0 -1 -30 -16 -43 -36 -31 -28 16 -204 45
-302 49 -24 1 -41 5 -39 10 4 6 -69 8 -83 2 -25 -12 -232 -12 -312 -1 -5 1 -8
6 -8 12 0 6 -7 18 -16 27 -14 13 -15 31 -9 123 3 59 8 119 9 133 2 14 -1 23
-6 20 -5 -3 -7 5 -4 18 3 12 8 54 11 92 4 38 9 75 12 83 3 7 0 13 -5 13 -6 0
-13 -10 -15 -22 -4 -20 -4 -19 -6 5 0 15 3 27 8 27 11 0 4 101 -9 136 -7 19
-7 31 1 40 7 8 9 17 5 21 -3 3 -6 0 -6 -8 0 -8 -16 17 -36 55 -35 67 -74 120
-74 99z"/>
<path d="M2440 1595 c-7 -9 -10 -18 -7 -22 4 -3 -3 -19 -14 -35 -24 -32 -19
-48 8 -27 14 12 16 12 8 0 -5 -10 -4 -12 3 -7 7 4 12 13 12 20 0 8 11 21 25
30 30 20 33 36 5 29 -16 -4 -19 -2 -14 11 8 20 -9 21 -26 1z"/>
<path d="M910 1595 c0 -4 18 -27 39 -53 67 -79 166 -317 153 -366 -5 -18 -8
-15 -24 19 -9 22 -18 36 -18 30 0 -5 -12 7 -27 28 -14 20 -30 37 -34 37 -5 0
-17 10 -29 22 -41 44 -19 5 29 -50 67 -79 96 -128 125 -214 18 -54 25 -65 25
-43 0 17 -4 50 -10 75 -6 25 -17 81 -24 125 -26 148 -97 307 -157 353 -9 7
-24 19 -33 28 -8 8 -15 13 -15 9z"/>
<path d="M1462 1589 c5 -15 68 -22 68 -8 0 6 -7 9 -15 6 -8 -4 -17 -2 -20 3
-9 14 -37 12 -33 -1z"/>
<path d="M1930 1513 c0 -7 4 -13 8 -13 5 0 14 -15 22 -34 14 -38 70 -87 70
-63 0 8 -11 27 -25 43 -14 16 -25 36 -26 44 0 10 -2 11 -6 2 -3 -8 -11 -5 -24
10 -10 13 -18 17 -19 11z"/>
<path d="M2233 1428 c3 -10 -7 -55 -22 -100 -27 -78 -49 -198 -37 -198 7 0 34
96 38 135 2 17 5 32 8 35 3 3 16 26 30 52 l25 48 -24 22 c-18 18 -22 19 -18 6z"/>
<path d="M1990 1378 c0 -4 9 -26 21 -48 12 -22 19 -47 15 -55 -3 -8 1 -31 9
-52 15 -38 15 -38 11 36 -4 63 -8 78 -30 100 -14 14 -26 22 -26 19z"/>
<path d="M2273 1324 c-2 -30 -7 -63 -13 -74 -5 -10 -10 -29 -10 -41 0 -12 -22
-51 -49 -88 -40 -55 -72 -131 -71 -168 1 -6 27 45 35 67 6 18 20 47 27 55 78
100 99 136 104 189 8 69 7 88 -8 102 -11 11 -13 4 -15 -42z"/>
<path d="M843 1347 c4 -10 7 -21 7 -23 0 -3 5 -2 10 1 6 3 13 -2 17 -12 7 -17
247 -388 265 -408 5 -5 2 9 -6 31 -15 45 -55 126 -65 134 -3 3 -15 22 -26 43
-11 20 -23 37 -27 37 -5 0 -8 7 -8 16 0 8 -4 12 -10 9 -5 -3 -10 1 -10 9 0 9
-4 16 -8 16 -10 0 -37 51 -33 63 1 5 -3 6 -9 2 -5 -3 -10 -2 -10 3 0 11 -46
61 -74 83 -18 13 -19 12 -13 -4z"/>
<path d="M44 1317 c-3 -10 -3 -30 1 -45 8 -29 12 -77 14 -155 1 -29 5 -46 11
-42 12 8 4 235 -10 249 -6 6 -12 3 -16 -7z"/>
<path d="M2725 1315 c26 -9 105 -12 105 -4 0 5 -26 9 -57 8 -32 0 -53 -2 -48
-4z"/>
<path d="M2320 1296 c0 -8 5 -18 10 -21 6 -4 10 -12 9 -18 -1 -7 2 -23 8 -37
11 -26 10 -72 -2 -105 -5 -15 -1 -14 19 8 29 31 31 43 15 84 -6 15 -12 44 -13
63 -1 28 -5 36 -23 38 -15 2 -23 -2 -23 -12z"/>
<path d="M414 1275 c-6 -16 12 -45 27 -45 5 0 9 14 9 30 0 32 -26 43 -36 15z"/>
<path d="M2430 1286 c0 -12 40 -96 46 -96 5 0 -20 61 -35 87 -6 10 -11 14 -11
9z"/>
<path d="M430 1188 c0 -20 5 -40 10 -43 6 -3 10 -25 10 -48 0 -47 13 -77 25
-58 8 14 -22 161 -36 176 -5 5 -9 -5 -9 -27z"/>
<path d="M515 1183 c5 -10 13 -41 19 -70 15 -70 30 -81 23 -16 -4 33 -2 55 5
59 7 4 2 14 -13 25 -30 23 -43 24 -34 2z"/>
<path d="M2390 1121 c0 -18 -8 -34 -22 -45 -23 -15 -23 -16 5 -6 38 13 39 13
32 -10 -4 -12 -2 -27 5 -35 7 -9 8 -15 0 -20 -5 -3 -10 -11 -10 -17 0 -6 3 -8
6 -5 13 13 46 -14 41 -34 -3 -10 -1 -17 4 -14 4 3 17 -3 29 -15 24 -24 24 -25
4 33 -9 26 -27 56 -40 66 -21 17 -24 25 -18 60 4 27 2 46 -6 56 -19 23 -30 18
-30 -14z"/>
<path d="M2550 1105 c-18 -21 -11 -25 56 -34 49 -7 55 -6 39 5 -10 8 -26 14
-36 14 -9 0 -19 7 -23 15 -7 19 -20 19 -36 0z"/>
<path d="M1818 1077 c-9 -7 -26 -19 -37 -27 -28 -19 -27 -68 2 -100 26 -30 35
-32 76 -20 25 7 31 6 31 -7 0 -12 3 -13 14 -4 11 10 17 8 25 -6 7 -13 10 -14
11 -4 0 8 3 12 6 8 3 -3 16 -2 29 3 13 5 26 6 29 2 11 -10 56 -10 56 0 0 6 -9
12 -19 15 -13 3 -18 11 -15 21 5 14 4 14 -6 0 -6 -10 -15 -18 -20 -18 -5 0
-11 8 -13 18 -4 15 -5 15 -6 -2 -1 -14 -6 -17 -23 -12 -13 3 -33 6 -44 6 -15
0 -23 8 -26 25 -5 26 14 36 28 14 4 -8 9 -7 15 2 7 11 9 12 9 1 0 -9 13 -13
43 -12 69 3 77 1 71 -15 -4 -8 -1 -15 5 -15 17 0 13 27 -6 42 -10 7 -23 22
-29 33 -7 12 -24 21 -44 22 -19 2 -37 8 -41 14 -5 8 -8 8 -14 0 -5 -9 -10 -9
-20 -1 -8 7 -23 9 -34 5 -12 -4 -23 0 -28 9 -6 11 -12 12 -25 3z m36 -46 c37
-41 -3 -103 -43 -67 -25 23 -27 49 -5 70 20 21 27 20 48 -3z m105 0 c30 0 56
-2 58 -4 8 -9 -10 -36 -20 -30 -6 4 -25 8 -42 10 -55 5 -75 13 -75 29 0 12 4
14 13 6 6 -5 36 -10 66 -11z"/>
<path d="M1814 1015 c-9 -23 3 -45 26 -45 12 0 19 4 15 10 -3 5 -12 7 -20 3
-11 -3 -15 2 -15 17 0 16 4 20 16 16 8 -3 12 -2 9 4 -9 15 -25 12 -31 -5z"/>
<path d="M1011 996 c-10 -12 -11 -16 -1 -16 12 0 24 -11 82 -80 29 -35 29 -35
16 -5 -7 17 -21 39 -30 50 -9 11 -25 31 -35 44 -17 21 -20 22 -32 7z"/>
<path d="M2250 981 c0 -22 -29 -94 -41 -101 -4 -3 -4 -12 1 -20 7 -11 10 -8
15 13 4 15 11 27 16 27 5 0 9 9 9 19 0 11 5 23 10 26 6 3 10 17 10 31 0 13 -4
24 -10 24 -5 0 -10 -8 -10 -19z"/>
<path d="M34 899 c3 -18 18 -43 32 -56 35 -32 43 -22 10 14 -14 15 -26 38 -26
50 0 13 -5 23 -11 23 -8 0 -9 -11 -5 -31z"/>
<path d="M2940 900 c0 -5 3 -10 8 -11 4 0 17 -2 30 -5 12 -2 22 0 22 5 0 5
-10 11 -22 15 -32 8 -38 7 -38 -4z"/>
<path d="M2510 881 c0 -11 4 -22 9 -26 5 -3 15 -22 22 -43 6 -20 25 -52 40
-70 32 -36 35 -48 43 -142 3 -36 13 -85 21 -110 l15 -45 -6 39 c-5 34 -7 191
-3 212 1 5 -2 24 -6 42 -6 26 -10 30 -21 21 -8 -6 -20 -9 -28 -6 -16 6 -39 74
-30 89 6 9 274 11 298 2 9 -3 16 -15 16 -25 0 -16 -4 -17 -25 -9 -35 13 -182
7 -197 -8 -9 -9 12 -12 99 -12 l112 0 7 -45 c10 -68 3 -77 -53 -70 -27 3 -67
11 -91 17 -23 6 -45 8 -49 5 -7 -8 75 -46 100 -47 9 0 17 -7 17 -15 0 -21 13
-19 46 8 16 12 30 21 31 20 2 -1 10 0 19 4 11 4 25 -3 40 -20 29 -34 42 -34
54 -1 14 36 14 36 -24 29 -37 -7 -48 2 -52 44 -1 14 -5 61 -10 103 l-7 77 -25
-19 c-22 -18 -41 -20 -167 -20 -128 0 -144 2 -165 20 -28 25 -30 25 -30 1z"/>
<path d="M447 867 c-3 -9 -2 -19 3 -22 6 -4 10 -17 10 -31 0 -44 17 -64 55
-64 19 0 35 5 35 10 0 6 -10 10 -22 10 -32 1 -58 23 -59 51 0 13 -4 33 -8 43
-7 17 -8 18 -14 3z"/>
<path d="M615 810 c9 -72 14 -90 27 -90 6 0 8 9 3 23 -3 12 -11 42 -16 66 -13
64 -22 65 -14 1z"/>
<path d="M1060 793 c20 -34 34 -73 26 -73 -2 0 -20 7 -39 15 -37 15 -97 11
-97 -7 0 -6 7 -8 15 -4 9 3 52 -1 96 -10 44 -8 85 -14 90 -12 6 2 -3 17 -20
33 -17 17 -31 36 -31 43 0 6 -4 12 -9 12 -5 0 -13 9 -16 20 -3 11 -13 20 -22
20 -12 0 -11 -7 7 -37z"/>
<path d="M237 780 c15 -15 123 -17 123 -2 0 4 -30 8 -66 8 -36 1 -62 -2 -57
-6z"/>
<path d="M2317 780 c-21 -4 -43 -12 -50 -19 -9 -10 -6 -10 16 -2 16 6 59 11
97 11 59 0 76 -4 130 -35 78 -44 93 -44 44 -1 -57 51 -135 66 -237 46z"/>
<path d="M2225 739 c-4 -6 -17 -14 -29 -19 -20 -8 -20 -9 -1 -9 20 0 55 20 55
33 0 10 -18 7 -25 -5z"/>
<path d="M2294 738 c-3 -4 15 -8 39 -8 24 0 47 -3 51 -7 3 -4 14 -8 23 -9 45
-7 87 -42 125 -106 62 -105 86 -171 81 -226 -4 -45 -3 -46 12 -27 25 30 14
101 -28 189 -68 139 -141 196 -260 201 -21 1 -40 -2 -43 -7z"/>
<path d="M558 702 c5 -27 28 -50 67 -65 20 -8 20 -8 0 10 -11 11 -28 22 -37
26 -10 3 -18 15 -18 26 0 11 -4 22 -9 25 -4 3 -6 -7 -3 -22z"/>
<path d="M366 705 c-16 -12 -17 -18 -7 -28 10 -10 15 -8 27 7 26 36 15 47 -20
21z"/>
<path d="M864 711 c-17 -4 -49 -18 -73 -31 -38 -22 -41 -27 -35 -55 9 -44 27
-54 77 -43 23 5 44 13 45 19 2 5 15 9 29 9 21 0 23 -2 10 -15 -8 -8 -21 -16
-28 -17 -7 -2 -20 -10 -29 -18 -38 -34 -61 -50 -71 -50 -5 0 -20 -10 -32 -21
-12 -12 -15 -19 -7 -15 8 4 7 1 -3 -7 -12 -10 -17 -25 -15 -43 5 -43 54 -54
105 -24 44 27 103 38 81 16 -7 -7 -32 -25 -55 -39 -24 -15 -50 -42 -59 -59 -9
-18 -13 -30 -9 -26 4 4 14 1 22 -7 18 -18 108 -21 97 -3 -5 7 -3 8 6 3 9 -5
22 2 38 21 13 16 21 23 17 15 -9 -16 3 -10 50 24 28 21 113 65 124 65 3 0 -21
-27 -54 -60 -33 -33 -65 -60 -71 -60 -21 0 -46 -49 -39 -79 7 -33 47 -39 102
-15 21 10 41 16 46 15 4 0 11 9 16 22 5 12 16 29 25 36 14 11 16 11 16 -2 0
-9 4 -19 10 -22 6 -3 7 1 4 9 -8 21 75 98 98 92 10 -2 20 0 23 4 7 11 67 41
72 36 2 -2 -1 -55 -8 -117 -10 -101 -14 -117 -38 -143 l-26 -29 27 17 c37 24
42 38 52 156 7 73 23 130 37 130 5 0 9 -12 9 -27 0 -30 -25 -184 -36 -221 -10
-36 6 -25 23 16 8 20 17 62 20 92 5 77 23 150 35 150 7 0 9 -33 5 -97 -3 -54
-3 -90 0 -81 2 10 8 18 12 18 5 0 9 15 10 33 1 17 3 52 4 77 3 59 12 73 39 59
15 -8 19 -8 13 1 -11 18 36 52 68 47 l27 -4 -22 24 -22 23 -21 -20 c-12 -11
-25 -20 -29 -20 -4 0 -20 -8 -34 -19 -15 -10 -58 -26 -97 -35 -157 -37 -179
-46 -236 -100 -78 -72 -164 -130 -184 -123 -25 10 -30 38 -9 54 10 7 55 49 99
92 69 66 79 80 67 91 -12 11 -7 16 34 29 27 9 50 22 52 29 1 6 -3 12 -8 12
-14 0 -108 -47 -142 -71 -14 -11 -33 -19 -41 -19 -8 0 -29 -13 -47 -30 -18
-16 -38 -30 -45 -30 -7 0 -18 -6 -24 -13 -6 -8 -31 -24 -56 -37 -42 -22 -47
-22 -62 -8 -18 19 -12 45 13 55 9 3 37 26 63 51 65 63 117 100 152 107 16 4
29 10 29 15 0 4 24 11 53 15 40 5 47 9 32 15 -26 11 -94 1 -120 -16 -11 -8
-34 -14 -53 -14 -31 0 -40 -5 -77 -37 -7 -7 -21 -13 -30 -13 -9 0 -26 -10 -39
-23 -29 -29 -81 -51 -101 -43 -27 10 -16 42 28 77 128 103 173 129 224 129 51
1 122 15 135 28 6 6 -13 10 -61 9 -39 0 -68 -4 -65 -8 3 -5 -2 -9 -11 -9 -9 0
-13 5 -10 10 4 6 -8 10 -29 10 -20 0 -36 -4 -36 -10 0 -5 -15 -10 -33 -10 -18
0 -42 -7 -53 -15 -10 -8 -34 -15 -51 -15 -28 0 -33 4 -33 24 0 19 11 29 53 49
28 14 66 30 82 36 36 11 6 13 -41 2z m126 -221 c0 -11 -53 -40 -72 -39 -7 0 1
7 19 15 17 7 34 18 38 24 8 13 15 13 15 0z"/>
<path d="M2314 706 c3 -19 68 -76 79 -69 6 3 7 1 3 -5 -3 -6 -2 -13 3 -16 15
-9 49 -87 56 -128 4 -20 13 -45 21 -55 11 -16 13 -11 10 37 -4 63 -15 110 -26
110 -4 0 -14 13 -22 29 -13 27 -104 111 -119 111 -4 0 -6 -6 -5 -14z"/>
<path d="M2266 680 c32 -21 84 -81 121 -140 12 -19 23 -31 23 -27 0 15 -34 81
-50 97 -9 9 -23 25 -31 37 -13 19 -69 53 -86 53 -4 0 6 -9 23 -20z"/>
<path d="M2124 682 c4 -7 16 -12 28 -12 11 0 36 -17 57 -37 20 -21 39 -36 44
-35 4 1 5 -10 2 -25 -4 -20 -3 -23 3 -9 15 35 35 -81 23 -134 -9 -42 -8 -60 5
-48 3 3 8 39 11 80 6 84 -6 120 -60 183 -25 28 -42 38 -76 42 -32 4 -42 3 -37
-5z"/>
<path d="M2444 663 c23 -42 45 -67 52 -60 9 8 -25 61 -48 76 -18 11 -18 11 -4
-16z"/>
<path d="M2273 635 c40 -68 51 -107 51 -175 -1 -44 -8 -82 -22 -115 -13 -29
-16 -42 -7 -31 8 11 15 24 15 29 0 4 5 5 12 1 6 -4 8 -3 4 4 -3 6 -2 13 4 17
15 10 12 146 -5 197 -9 24 -29 60 -46 79 l-30 34 24 -40z"/>
<path d="M560 490 c-8 -5 -13 -10 -10 -11 31 -6 52 -3 61 8 9 10 6 13 -12 13
-13 0 -31 -5 -39 -10z"/>
<path d="M2400 413 c0 -57 4 -83 9 -74 12 19 12 161 0 161 -5 0 -9 -39 -9 -87z"/>
<path d="M2500 489 c0 -4 7 -26 15 -49 17 -47 20 -84 6 -76 -4 3 -6 -6 -3 -20
l4 -25 14 27 c20 39 17 70 -11 112 -14 20 -25 34 -25 31z"/>
<path d="M2720 456 c0 -8 -6 -17 -12 -19 -7 -3 -2 -5 12 -6 31 0 76 17 48 18
-10 1 -18 6 -18 11 0 6 -7 10 -15 10 -8 0 -15 -6 -15 -14z"/>
<path d="M1730 435 c5 -5 26 -18 47 -29 21 -10 46 -23 56 -28 11 -5 21 -7 24
-5 2 3 -27 20 -66 39 -38 18 -66 29 -61 23z"/>
<path d="M2771 359 c-12 -20 -11 -21 11 -16 12 4 28 7 34 7 6 0 11 7 11 15 0
23 -40 18 -56 -6z"/>
<path d="M1704 275 c0 -49 3 -80 7 -69 10 25 10 113 0 138 -4 11 -7 -20 -7
-69z"/>
<path d="M2601 297 c-18 -20 -19 -25 -7 -30 8 -3 16 -22 19 -44 l4 -38 1 41
c1 22 7 45 13 51 7 7 8 17 2 27 -8 15 -12 14 -32 -7z"/>
<path d="M1509 174 c-21 -42 -31 -70 -23 -67 8 3 14 12 14 20 0 8 5 11 10 8 6
-3 10 1 10 10 0 9 4 14 9 11 8 -5 27 83 19 88 -2 1 -19 -30 -39 -70z"/>
<path d="M1815 212 c-6 -5 -31 -17 -57 -26 -27 -10 -48 -22 -48 -27 0 -13 5
-12 63 13 57 24 89 48 65 48 -8 0 -18 -4 -23 -8z"/>
<path d="M2192 78 c21 -65 27 -75 24 -43 -3 28 -22 75 -30 75 -3 0 0 -15 6
-32z"/>
</g>
</svg>
